# xmcd
#
# Track frame offsets: 
#        150
#        18209
#        34653
#        55306
#        72704
#        89247
#        106789
#        126350
#        145150
#        162248
#        176557
#        194170
#
# Disc length: 2774 seconds
#
# Revision: 1
# Processed by: cddbd v1.5PL3 Copyright (c) Steve Scherf et al.
# Submitted via: ExactAudioCopy v0.95a5
#
DISCID=b20ad40c
DTITLE=Maria Dolores Pradera - As de Corazones
DYEAR=1999
DGENRE=Latin
TTITLE0=El talismán
TTITLE1=Mi buen amor
TTITLE2=Procuro olvidarte
TTITLE3=Sevilla tiene un color especial
TTITLE4=La gota fria
TTITLE5=No sé por que te quiero
TTITLE6=Hijo de la luna
TTITLE7=El día que se hizo tarde
TTITLE8=Sangre española
TTITLE9=Me ha dicho la luna
TTITLE10=Lia
TTITLE11=Se me olvido otra vez
EXTD=
EXTT0=
EXTT1=
EXTT2=
EXTT3=
EXTT4=
EXTT5=
EXTT6=
EXTT7=
EXTT8=
EXTT9=
EXTT10=
EXTT11=
PLAYORDER=
